<svg xmlns="http://www.w3.org/2000/svg" viewBox="0 0 376.5099 408.5493"><defs><style>.cls-1{isolation:isolate;}.cls-2{opacity:0.07;mix-blend-mode:multiply;}.cls-3{font-size:162.9295px;font-family:AgencyFB-Reg, Agency FB;}.cls-24,.cls-25,.cls-3{fill:#fff;}.cls-4{fill:#a4f4f0;}.cls-5{fill:#ffc0b6;}.cls-6{fill:#6d4332;}.cls-7{fill:#1c88b7;}.cls-8{fill:#f9ada7;}.cls-9{fill:#f44747;}.cls-10{fill:#272525;}.cls-11{fill:#513882;}.cls-12{fill:#ffce31;}.cls-13,.cls-26,.cls-27,.cls-28,.cls-29,.cls-30,.cls-31,.cls-32,.cls-33{fill:none;}.cls-14{fill:#e5e5e5;}.cls-15{fill:#aa705e;}.cls-16{fill:#ff7c33;}.cls-17{fill:#c65828;}.cls-18{fill:#2c3c4c;}.cls-19{fill:#666;}.cls-20{fill:#d85c25;}.cls-21{fill:#bbffe8;}.cls-22{fill:#5b5b5b;}.cls-23{fill:#9fddc6;}.cls-25{font-size:56.1271px;font-family:BebasNeueRegular;}.cls-26,.cls-27,.cls-28,.cls-31,.cls-32,.cls-33{stroke:#fff;}.cls-26,.cls-27,.cls-28,.cls-29,.cls-30,.cls-31,.cls-32,.cls-33{stroke-miterlimit:10;}.cls-26,.cls-30{stroke-width:3px;}.cls-27,.cls-29{stroke-width:4px;}.cls-28{stroke-width:2px;}.cls-29,.cls-30{stroke:#edfbfc;}.cls-31{stroke-width:6px;}.cls-32{stroke-width:0.75px;}.cls-33{stroke-width:1.5px;stroke-dasharray:5;}</style></defs><g class="cls-1"><g id="Layer_2" data-name="Layer 2"><g id="OBJECTS"><path class="cls-2" d="M340.3789,372.84c0,8.2292-67.6487,14.9005-151.0967,14.9005S38.1855,381.0689,38.1855,372.84,105.8341,357.94,189.2822,357.94,340.3789,364.6106,340.3789,372.84Z"/><text class="cls-3" transform="translate(72.0092 375.9316)">QUIZ</text><path class="cls-4" d="M315.5693,9.3154a1.9644,1.9644,0,1,1,1.9658-1.9639A1.9662,1.9662,0,0,1,315.5693,9.3154Z"/><path class="cls-4" d="M309.72,17.8418h6.09a3.98,3.98,0,0,1,4.9893-5.3145,9.1435,9.1435,0,0,1-.06-1.043,9.6385,9.6385,0,0,1,19.1865-1.3213,6.0776,6.0776,0,0,1,1.0332-.0957,5.9384,5.9384,0,0,1,5.6485,7.7745h3.1406a3.2876,3.2876,0,1,1,0,6.5752H309.72a3.2876,3.2876,0,0,1,0-6.5752Z"/><path class="cls-4" d="M61.4912,178.6552a1.5654,1.5654,0,1,1,1.5644-1.5644A1.5664,1.5664,0,0,1,61.4912,178.6552Z"/><path class="cls-4" d="M56.8291,185.4472h4.8515a3.1735,3.1735,0,0,1,3.9766-4.2343,7.2458,7.2458,0,0,1-.0489-.8291,7.6811,7.6811,0,0,1,15.29-1.0547,4.858,4.858,0,0,1,.8223-.0743,4.7321,4.7321,0,0,1,4.7324,4.7315,4.66,4.66,0,0,1-.2315,1.4609h2.503a2.6206,2.6206,0,1,1,0,5.2412H56.8291a2.6206,2.6206,0,0,1,0-5.2412Z"/><path class="cls-4" d="M43.5332,56.5576H37.7421a3.77,3.77,0,0,0,.2911-1.4571,3.8123,3.8123,0,0,0-3.8145-3.8115,3.7662,3.7662,0,0,0-1.2207.2158,8.7881,8.7881,0,0,0,.0566-.9921,9.1669,9.1669,0,0,0-18.248-1.2588,5.9189,5.9189,0,0,0-.9824-.0909,5.6468,5.6468,0,0,0-5.3731,7.3946H3.1289a3.1275,3.1275,0,1,0,0,6.2549H43.5332a3.1275,3.1275,0,1,0,0-6.2549Z"/><path class="cls-4" d="M213.7558,63.7422a2.4249,2.4249,0,1,1,2.4238-2.4249A2.4267,2.4267,0,0,1,213.7558,63.7422Z"/><path class="cls-4" d="M208.6025,73.7519h1.1016c-.004-.0869-.0137-.1719-.0137-.26a5.8061,5.8061,0,0,1,8.34-5.2354,11.8892,11.8892,0,0,1,23.7207-.42,7.3656,7.3656,0,0,1,11.3125,4.6777,3.5613,3.5613,0,0,1,6.8155,1.2373h4.1845a4.0586,4.0586,0,1,1,0,8.1172H208.6025a4.0586,4.0586,0,1,1,0-8.1172Z"/><path class="cls-4" d="M277.0449,73.7519h2.7695a4.0586,4.0586,0,0,1,0,8.1172h-2.7695a4.0586,4.0586,0,1,1,0-8.1172Z"/><polygon class="cls-5" points="81.841 249.016 59.395 246.391 43.182 249.24 28.075 233.851 25.789 236.238 39.907 255.663 56.936 255.773 52.983 285.139 76.144 290.735 80.177 264.357 81.478 257.649 93.644 257.373 101.554 274.621 104.823 275.102 97.665 251.002 81.841 249.016"/><polygon class="cls-6" points="63.619 234.7 59.078 221.731 62.636 223.148 60.857 217.565 68.394 222.481 67.161 219.398 81.978 226.902 78.993 236.238 63.619 234.7"/><polygon class="cls-7" points="71.642 325.694 50.228 312.565 61.894 298.481 58.643 366.991 63.452 366.991 76.144 290.735 52.983 285.139 36.643 316.076 71.642 330.503 71.642 325.694"/><polygon points="63.452 366.991 63.452 371.136 61.21 371.136 61.21 370.115 59.806 371.136 49.715 371.136 49.715 371.136 58.643 366.991 63.452 366.991"/><polygon points="71.642 325.694 75.786 325.694 75.786 327.937 74.767 327.937 75.786 329.341 75.786 339.433 75.786 339.433 71.642 330.503 71.642 325.694"/><path class="cls-5" d="M28.0751,233.8505c1.1065-4.5839-1.7587-1.7861-1.7587-1.7861s-4.35-2.75-5.19-1.86c-1.1562,1.2324,4.6631,6.0341,4.6631,6.0341Z"/><path class="cls-5" d="M101.5537,274.6211c-4.378,1.7529-.4385,2.4687-.4385,2.4687s.2773,5.1377,1.4892,5.3086c1.6748.23,2.2188-7.2969,2.2188-7.2969Z"/><path class="cls-5" d="M64.6289,247.0732l8.5009.96s-.9638,5.8144-4.9023,5.3681C63.5039,252.8681,64.6289,247.0732,64.6289,247.0732Z"/><polygon class="cls-5" points="74.565 246.108 64.898 245.004 64.416 229.562 78.993 231.229 74.565 246.108"/><path class="cls-5" d="M64.53,233.2373s-1.7627-.9639-1.9365.5468c-.2178,1.9092,2.0654,3.4971,2.0654,3.4971Z"/><path class="cls-5" d="M77.9316,234.8017s2.0674-.5605,1.8935.9512c-.2187,1.9111-3.0468,2.915-3.0468,2.915Z"/><path class="cls-8" d="M71.9427,239.3737a15.2934,15.2934,0,0,0-.7879-3.8572,15.2152,15.2152,0,0,0,.066,3.9364,6.8862,6.8862,0,0,0,.1337.9507c-.015.0066.0074.0147-.0607.0227l-.4115.0244c-.2649.0183-.51.0407-.7312.0666a5.1918,5.1918,0,0,0-1.0066.1932,5.2417,5.2417,0,0,0,1.0014.2174c.2205.0313.465.06.7294.0847l.4107.0346.8145.0336Z"/><rect class="cls-5" x="65.9918" y="244.6523" width="7.447" height="4.7593" transform="translate(-183.6401 288.2151) rotate(-83.473)"/><polygon class="cls-8" points="67.267 247.478 72.187 246.357 72.246 245.843 67.517 245.304 67.267 247.478"/><polygon class="cls-9" points="76.144 290.735 52.983 285.139 56.936 255.773 49.934 255.728 50.446 247.963 59.395 246.391 85.149 249.455 84.319 257.585 81.478 257.649 76.144 290.735"/><path class="cls-5" d="M139.9726,94.82c-3.7178,2.2558-2.2109-1-2.2109-1s-3.6338-3.0508-3.085-4.0391c.7568-1.3574,6.6465,2.46,6.6465,2.46Z"/><path class="cls-10" d="M125.2451,90.1045c0-6.5625-2.8291-8.751-8.2285-6.8457-3.1875,1.125-4.0625,6.3574-3.0625,8.9824.75,1.75,1.9375,2.1523,1.3125,4.4023-.375,1.5-1.99,1.9717-2.25,3.586-.3018,1.8759.875,2.875,2.5,3.875,2.375,1.5.4375,3.8125-1.5,3.875a5.0705,5.0705,0,0,0,5.25-1.375c1.375-1.5-.8057-2.7627-.9375-4.3829-.2178-2.6767.9951-2.9218,1.7792-4.4111,1.0938-2.0781-2.4042-6.2685,1.9961-6.081Z"/><path class="cls-10" d="M122.7519,101.3437s-8.084-12.5146,5.1006-15.26c10.4551-2.1777,11.6064,11.3067,8.8174,12.96C133.15,101.1308,122.7519,101.3437,122.7519,101.3437Z"/><path class="cls-5" d="M133.9687,112.8261l-.0742-6.5595-6.0469-.39.0791,7.05S130.9179,118.292,133.9687,112.8261Z"/><polygon class="cls-8" points="127.935 110.73 133.943 109.188 133.894 106.267 127.848 105.877 127.935 110.73"/><path class="cls-5" d="M136.3486,94.09l-.1729,11.3565-4.5566,3.3544-5.2012-1.7978-4.3135-10.0947a14.9587,14.9587,0,0,0,6.7217-4.15s.2334,2.1689-4.0195,4.5635a9.2929,9.2929,0,0,0,5.8281-4.4961S132.3779,94.4218,136.3486,94.09Z"/><path class="cls-5" d="M123.4121,98.63s-2.05-.2724-1.5772,1.5147c.6113,2.2617,3.41,2.999,3.41,2.999Z"/><path class="cls-5" d="M135.6894,96.8369s1.89-.8477,1.9434,1.0019c.0644,2.3409-2.4082,3.8477-2.4082,3.8477Z"/><path class="cls-8" d="M131.8341,102.3545a5.0155,5.0155,0,0,0-1.2372-1.3489,4.9935,4.9935,0,0,0,.84,1.6262l.2056.2837c.0159.0157.0175.0077.0377.0233-.0161.0159.0372.0094-.0726.0648l-.285.1568a1.7342,1.7342,0,0,0-.3707.2764,1.7427,1.7427,0,0,0,.4615-.0271l.3191-.0632c.1092-.0245.3983-.1169.6315-.1917Z"/><polygon class="cls-5" points="118.904 148.241 106.767 133.472 116.933 111.641 144.444 111.446 149.142 106.355 139.973 94.82 141.323 92.241 156.892 107.951 145.517 120.98 141.923 147.981 122.567 147.981 119.454 122.542 113.892 133.253 121.816 148.75 120.741 150.344 118.904 148.241"/><path class="cls-11" d="M132.1962,159.0576l-7.997,72.5332h-4.16s-2.8623-58.7129-2.1777-71.4072c.4336-8.0147,4.6054-12.2022,4.6054-12.2022h19.4561s4.1748,4.1875,4.6094,12.2022c.6855,12.6943,14.8213,71.4072,14.8213,71.4072h-4.1621Z"/><path class="cls-5" d="M118.833,148.1445c-4.1368-1.3389-1.9209,1.4824-1.9209,1.4824s-2.833,3.8047-2.0723,4.6416c1.0488,1.1465,5.9014-3.9248,5.9014-3.9248Z"/><polygon class="cls-12" points="118.347 124.674 119.454 122.542 122.567 147.981 141.923 147.981 145.517 120.98 150.123 115.703 145.548 110.25 144.444 111.446 116.933 111.641 113.444 119.134 118.347 124.674"/><path class="cls-5" d="M136.5166,111.5019l-11.8936.0772s1.38,10.2129,6.3867,10.2129S136.5166,111.5019,136.5166,111.5019Z"/><polygon class="cls-13" points="126.491 175.189 137.901 175.189 132.196 159.058 126.491 175.189"/><path class="cls-14" d="M120.039,231.5908c-1.5361,0-10.0049,5.0576-10.0049,5.0576h14.1651v-5.0576Z"/><path class="cls-14" d="M161.3535,231.5908c1.5361,0,10.0019,5.0576,10.0019,5.0576H157.19v-5.0576Z"/><path class="cls-15" d="M294.2382,158.0439s3.08-6.3955-1.2568-8.5615-13.4629,9.501-.1914,10.584Z"/><path class="cls-16" d="M292.7,161.7509s-1.5527-1.9267-.2626-3.2216c1.289-1.2969,3.8437-.6133,4.1132.4755Z"/><path class="cls-15" d="M292.8623,178.98l17.5351-9.5234c-.4463-10.1582-10.7978-13.6963-16.2226-9.9668C287.1748,164.3027,288.9345,170.081,292.8623,178.98Z"/><polygon class="cls-17" points="296.264 192.898 302.197 202.958 318.506 219.71 318.898 217.862 306.324 200.121 300.392 184.264 296.264 192.898"/><polygon class="cls-18" points="323.289 238.575 330.058 277.367 334.949 277.367 332.658 239.938 323.289 238.575"/><path class="cls-5" d="M292.79,178.9375l7.1357,4.2187,4.0323-3.3017,1.9668.03.09-2.3349,4.3828-8.0928-8.331-2.2363-2.5625,3.6406-1.0313-.377s.002-2.95-1.2832-2.7421c-1.3389.2167-1.4316,1.9062-.8555,3.414l-2.1543,2.2656Z"/><rect class="cls-5" x="288.307" y="181.3294" width="9.3517" height="5.288" transform="translate(-14.4275 342.6681) rotate(-59.4302)"/><polygon class="cls-8" points="292.052 180.351 297.181 182.068 297.414 181.672 292.862 178.98 292.052 180.351"/><polygon class="cls-16" points="288.326 182.125 279.662 220.32 297.242 218.844 299.093 199.486 294.821 202.958 318.225 221.034 318.898 217.862 304.003 200.778 300.392 184.264 288.326 182.125"/><path class="cls-18" d="M279.6621,220.32s-3.9971,17.3828,10.4853,17.5722l32.2324-.374L342.9013,277.94l4.5078-1.9033-18.1142-49.19-32.0528-8.0039"/><polygon class="cls-18" points="330.058 284.639 344.495 284.639 334.949 277.367 330.058 277.367 330.058 284.639"/><polygon class="cls-18" points="345.729 284.639 359.031 279.023 347.409 276.037 342.901 277.94 345.729 284.639"/><polygon class="cls-19" points="306.681 222.135 308.481 218.844 334.115 224.414 333.367 227.93 306.681 222.135"/><polygon class="cls-19" points="333.367 227.93 349.379 207.516 345.438 206.678 331.735 223.908 333.367 227.93"/><path class="cls-5" d="M318.2246,221.0341l.6738-3.1718s5.9394,1.2529,7.248,4.8564Z"/><path class="cls-20" d="M293.8206,198.3639a75.2227,75.2227,0,0,0,4.6691,7.4274,105.8274,105.8274,0,0,0-8.709-15.2149A75.23,75.23,0,0,0,293.8206,198.3639Z"/><polygon points="216.683 372.13 250.459 372.13 250.459 378.569 233.569 385.239 216.683 378.337 216.683 372.13"/><path class="cls-10" d="M225.0361,325.2226s-2.9746-7.4795-1.1729-10.1582c2.6338-3.915,14.168-8.418,18.4483-6.083,3.666,2,1.2617,15.7324-.9112,16.2412S225.0361,325.2226,225.0361,325.2226Z"/><polygon class="cls-21" points="251.307 334.517 251.307 334.517 259.57 357.949 258.931 361.371 249.977 368.268 248.963 377.405 218.472 376.832 218.056 368.781 218.056 368.781 207.267 362.659 206.368 359.677 214.747 334.779 251.307 334.517"/><path class="cls-5" d="M236.373,334.9365l-.0859-4.8858-6.8282-.3466.0879,5.3213S232.748,342.3056,236.373,334.9365Z"/><polygon class="cls-5" points="238.379 335.758 227.526 335.758 225.036 319.703 241.4 319.703 238.379 335.758"/><path class="cls-5" d="M225.9384,323.76s-2.0752-.8457-2.0752.8526c0,2.1416,2.73,3.6123,2.73,3.6123Z"/><path class="cls-5" d="M240.457,323.7959s2.22-.8819,2.22.8164c0,2.1416-3.0068,3.6123-3.0068,3.6123Z"/><path class="cls-8" d="M234.2236,329.2013a17.3641,17.3641,0,0,0-1.34-3.9788,17.2847,17.2847,0,0,0,.6346,4.15,7.1626,7.1626,0,0,0,.24.8847c-.03.0092.0453.01-.0937.0316l-.4534.0726c-.2916.0494-.561.1008-.8034.1531a6.0315,6.0315,0,0,0-1.09.3158,6.09,6.09,0,0,0,1.13.1035l.8178-.0013.459-.0144.8768-.0607Z"/><path class="cls-10" d="M228.8916,392.2588l-2.2686-4.9922-3.9932,1.9277.2578,13.0977A10.83,10.83,0,0,0,228.8916,392.2588Z"/><polygon points="250.32 368.754 264.707 364.393 271.539 368 270.774 377.255 228.916 392.282 226.645 387.289 245.71 377.229 250.32 368.754"/><path class="cls-22" d="M246.45,376.9692c-5.6768,2.8423-10.4312,5.3928-12.1781,6.5029,1.936-.7325,6.8264-3.0112,12.5032-5.8535s10.4312-5.3927,12.1775-6.5039C257.0174,371.8483,252.127,374.1269,246.45,376.9692Z"/><polygon points="218.697 368.986 204.308 364.625 197.476 368.233 198.24 377.489 240.097 392.517 242.366 387.525 223.304 377.464 218.697 368.986"/><path class="cls-22" d="M226.0513,379.7612c7.43,3.721,13.81,6.7461,16.3147,7.7647-2.3152-1.3962-8.5592-4.693-15.99-8.4141s-13.81-6.7461-16.3152-7.7637C212.3769,372.7432,218.6209,376.04,226.0513,379.7612Z"/><path class="cls-10" d="M240.0966,392.5166l2.27-4.9912,3.9941,1.9277-.2568,13.0967A10.8353,10.8353,0,0,1,240.0966,392.5166Z"/><path class="cls-23" d="M219.5256,348.4218a25.6775,25.6775,0,0,0-1.2478,4.96,35.9691,35.9691,0,0,0,3.1845-9.6934A25.6765,25.6765,0,0,0,219.5256,348.4218Z"/><path class="cls-23" d="M245.7593,347.0708a23.6864,23.6864,0,0,0,1.8652,4.5417,33.1454,33.1454,0,0,0-3.0411-9.3086A23.6785,23.6785,0,0,0,245.7593,347.0708Z"/><polygon class="cls-19" points="250.325 377.405 215.881 377.405 212.352 353.874 252.766 351.285 250.325 377.405"/><path class="cls-24" d="M235.4091,364.6259a2.8491,2.8491,0,1,1-2.85-2.8457A2.8513,2.8513,0,0,1,235.4091,364.6259Z"/><path class="cls-8" d="M230.3271,336.4043l4.3262,1.039a7.3734,7.3734,0,0,0,1.2636-1.6855H229.914C230.0292,335.9541,230.1669,336.1757,230.3271,336.4043Z"/><text class="cls-25" transform="translate(126.3418 49.4102)">?</text><rect class="cls-26" x="114.1191" y="1.5" width="47.2344" height="55.1103"/><path class="cls-27" d="M352.4667,70.2773a13.9591,13.9591,0,1,1-19.7412,0A13.958,13.958,0,0,1,352.4667,70.2773Z"/><line class="cls-28" x1="352.4677" y1="90.0224" x2="363.455" y2="101.0078"/><line class="cls-27" x1="360.7861" y1="98.3369" x2="375.0957" y2="112.6474"/><polyline class="cls-29" points="212.279 141.855 222.287 151.862 253.358 120.792"/><rect class="cls-30" x="205.5585" y="131.6494" width="29.4756" height="29.4756"/><path class="cls-26" d="M42.9931,134.9238c0,10.0928-8.8047,25.8975-19.664,25.8975S3.666,145.0166,3.666,134.9238s8.8037-18.2774,19.6631-18.2774S42.9931,124.83,42.9931,134.9238Z"/><polyline class="cls-28" points="30.831 158.252 30.831 164.623 15.829 164.623 15.829 158.252"/><polyline class="cls-28" points="29.77 164.623 29.77 169.36 16.889 169.36 16.889 164.623"/><path class="cls-28" d="M27.6875,168.7675a4.358,4.358,0,0,1-8.7159,0"/><line class="cls-31" x1="23.3291" y1="160.8047" x2="23.3291" y2="149.9658"/><polyline class="cls-28" points="15.499 137.777 23.314 149.966 31.162 137.777"/><polyline class="cls-32" points="15.863 138.278 17.969 137.777 19.973 134.26 22.403 141.061 25.196 134.26 26.107 139.24 27.626 137.659 30.795 138.42"/><line class="cls-33" x1="23.3291" y1="226.248" x2="23.3291" y2="180.3144"/><polyline class="cls-33" points="104.767 94.209 86.267 94.209 86.267 29.531 103.767 29.531"/><line class="cls-33" x1="347.4091" y1="195.1836" x2="347.4091" y2="110.664"/><line class="cls-33" x1="221.4628" y1="170.5293" x2="221.4628" y2="304.664"/></g></g></g></svg>